<svg width="214" height="91" viewBox="0 0 214 91" fill="none" xmlns="http://www.w3.org/2000/svg">
<path d="M0.36775 2.608H5.80775L10.8318 17.392L10.0958 17.072L14.4798 6.16L16.6238 12.528L9.83975 27.088L0.36775 2.608ZM12.1758 2.608H16.7838L22.5758 16.912L21.7438 16.784L26.0638 2.608H31.0558L21.9678 27.024L12.1758 2.608ZM37.4108 26.384C36.1094 26.384 34.9254 26.128 33.8588 25.616C32.8134 25.0827 31.9814 24.272 31.3628 23.184C30.7441 22.096 30.4348 20.7093 30.4348 19.024C30.4348 17.4453 30.7548 16.08 31.3948 14.928C32.0348 13.776 32.8774 12.8907 33.9227 12.272C34.9681 11.632 36.0774 11.312 37.2508 11.312C38.6374 11.312 39.6828 11.5467 40.3868 12.016C41.1121 12.464 41.7094 12.9653 42.1788 13.52L41.9868 14.064L42.4028 12.016H46.5628V26H42.0828V22.96L42.4348 23.92C42.3921 23.92 42.2641 24.048 42.0508 24.304C41.8374 24.5387 41.5174 24.8267 41.0908 25.168C40.6854 25.488 40.1734 25.7653 39.5548 26C38.9574 26.256 38.2428 26.384 37.4108 26.384ZM38.6908 22.736C39.2241 22.736 39.7041 22.6613 40.1308 22.512C40.5574 22.3413 40.9308 22.1067 41.2508 21.808C41.5708 21.488 41.8481 21.0933 42.0828 20.624V17.2C41.9121 16.7307 41.6561 16.336 41.3148 16.016C40.9734 15.6747 40.5681 15.4187 40.0988 15.248C39.6294 15.056 39.1068 14.96 38.5308 14.96C37.8908 14.96 37.2934 15.1307 36.7388 15.472C36.2054 15.792 35.7788 16.24 35.4588 16.816C35.1388 17.392 34.9788 18.0533 34.9788 18.8C34.9788 19.5467 35.1494 20.2187 35.4908 20.816C35.8321 21.4133 36.2801 21.8827 36.8348 22.224C37.4108 22.5653 38.0294 22.736 38.6908 22.736ZM55.243 12.016L55.595 14.512L55.531 14.288C56.0217 13.4133 56.715 12.7093 57.611 12.176C58.507 11.6213 59.6057 11.344 60.907 11.344C62.2297 11.344 63.3283 11.7387 64.203 12.528C65.099 13.296 65.5577 14.2987 65.579 15.536V26H61.099V17.2C61.0777 16.5813 60.907 16.0907 60.587 15.728C60.2883 15.344 59.7763 15.152 59.051 15.152C58.3683 15.152 57.771 15.376 57.259 15.824C56.747 16.272 56.3523 16.88 56.075 17.648C55.7977 18.416 55.659 19.3013 55.659 20.304V26H51.179V12.016H55.243ZM71.491 5.872H75.971V11.952H79.363V15.44H75.971V26H71.491V15.44H69.315V11.952H71.491V5.872ZM94.491 5.872H98.971V11.952H102.363V15.44H98.971V26H94.491V15.44H92.315V11.952H94.491V5.872ZM104.685 18.832C104.685 17.4027 105.015 16.1227 105.677 14.992C106.359 13.8613 107.309 12.976 108.525 12.336C109.741 11.6747 111.138 11.344 112.717 11.344C114.317 11.344 115.703 11.6747 116.877 12.336C118.05 12.976 118.946 13.8613 119.565 14.992C120.205 16.1227 120.525 17.4027 120.525 18.832C120.525 20.2613 120.205 21.552 119.565 22.704C118.946 23.8347 118.05 24.7307 116.877 25.392C115.703 26.0533 114.295 26.384 112.653 26.384C111.117 26.384 109.741 26.0853 108.525 25.488C107.33 24.8907 106.391 24.0267 105.709 22.896C105.026 21.7653 104.685 20.4107 104.685 18.832ZM109.197 18.864C109.197 19.5893 109.346 20.2507 109.645 20.848C109.943 21.424 110.349 21.8827 110.861 22.224C111.373 22.5653 111.949 22.736 112.589 22.736C113.293 22.736 113.901 22.5653 114.413 22.224C114.925 21.8827 115.319 21.424 115.597 20.848C115.874 20.2507 116.013 19.5893 116.013 18.864C116.013 18.1173 115.874 17.456 115.597 16.88C115.319 16.304 114.925 15.8453 114.413 15.504C113.901 15.1627 113.293 14.992 112.589 14.992C111.949 14.992 111.373 15.1627 110.861 15.504C110.349 15.8453 109.943 16.304 109.645 16.88C109.346 17.456 109.197 18.1173 109.197 18.864ZM138.524 12.016L138.876 14.48L138.812 14.288C139.367 13.3493 140.06 12.624 140.892 12.112C141.724 11.5787 142.727 11.312 143.9 11.312C144.668 11.312 145.34 11.4187 145.916 11.632C146.514 11.8453 147.015 12.1653 147.42 12.592C147.826 12.9973 148.103 13.5307 148.252 14.192L148.092 14.224C148.69 13.3493 149.404 12.6453 150.236 12.112C151.09 11.5787 151.975 11.312 152.892 11.312C154.279 11.312 155.378 11.7067 156.188 12.496C157.02 13.264 157.447 14.2667 157.468 15.504V26H153.02V17.36C152.999 16.7413 152.903 16.24 152.732 15.856C152.562 15.4507 152.167 15.2267 151.548 15.184C150.823 15.184 150.204 15.44 149.692 15.952C149.202 16.4427 148.828 17.0827 148.572 17.872C148.338 18.64 148.22 19.44 148.22 20.272V26H143.74V17.36C143.719 16.7413 143.602 16.24 143.388 15.856C143.196 15.4507 142.791 15.2267 142.172 15.184C141.468 15.184 140.871 15.44 140.38 15.952C139.911 16.4427 139.548 17.072 139.292 17.84C139.058 18.608 138.94 19.3973 138.94 20.208V26H134.46V12.016H138.524ZM167.973 26.384C166.672 26.384 165.488 26.128 164.421 25.616C163.376 25.0827 162.544 24.272 161.925 23.184C161.307 22.096 160.997 20.7093 160.997 19.024C160.997 17.4453 161.317 16.08 161.957 14.928C162.597 13.776 163.44 12.8907 164.485 12.272C165.531 11.632 166.64 11.312 167.813 11.312C169.2 11.312 170.245 11.5467 170.949 12.016C171.675 12.464 172.272 12.9653 172.741 13.52L172.549 14.064L172.965 12.016H177.125V26H172.645V22.96L172.997 23.92C172.955 23.92 172.827 24.048 172.613 24.304C172.4 24.5387 172.08 24.8267 171.653 25.168C171.248 25.488 170.736 25.7653 170.117 26C169.52 26.256 168.805 26.384 167.973 26.384ZM169.253 22.736C169.787 22.736 170.267 22.6613 170.693 22.512C171.12 22.3413 171.493 22.1067 171.813 21.808C172.133 21.488 172.411 21.0933 172.645 20.624V17.2C172.475 16.7307 172.219 16.336 171.877 16.016C171.536 15.6747 171.131 15.4187 170.661 15.248C170.192 15.056 169.669 14.96 169.093 14.96C168.453 14.96 167.856 15.1307 167.301 15.472C166.768 15.792 166.341 16.24 166.021 16.816C165.701 17.392 165.541 18.0533 165.541 18.8C165.541 19.5467 165.712 20.2187 166.053 20.816C166.395 21.4133 166.843 21.8827 167.397 22.224C167.973 22.5653 168.592 22.736 169.253 22.736ZM181.742 26V0.751999H186.222V26H181.742ZM189.774 16.496L196.11 26H190.894L186.83 19.056L189.774 16.496ZM184.878 22.128L184.43 17.872L192.878 11.664L195.597 14.064L184.878 22.128ZM205.747 26.384C204.04 26.384 202.589 26.064 201.395 25.424C200.221 24.784 199.325 23.8987 198.707 22.768C198.088 21.6373 197.779 20.336 197.779 18.864C197.779 17.456 198.141 16.1867 198.867 15.056C199.592 13.9253 200.563 13.0293 201.779 12.368C202.995 11.6853 204.349 11.344 205.843 11.344C207.848 11.344 209.491 11.9307 210.771 13.104C212.072 14.256 212.914 15.9307 213.299 18.128L202.419 21.584L201.427 19.152L209.299 16.496L208.371 16.912C208.2 16.3573 207.891 15.8773 207.443 15.472C207.016 15.0453 206.365 14.832 205.491 14.832C204.829 14.832 204.243 14.992 203.731 15.312C203.24 15.6107 202.856 16.048 202.579 16.624C202.323 17.1787 202.195 17.84 202.195 18.608C202.195 19.4827 202.355 20.2187 202.675 20.816C202.995 21.392 203.432 21.8293 203.987 22.128C204.541 22.4267 205.16 22.576 205.843 22.576C206.333 22.576 206.803 22.4907 207.251 22.32C207.72 22.1493 208.179 21.9253 208.627 21.648L210.611 24.976C209.864 25.4027 209.053 25.744 208.179 26C207.325 26.256 206.515 26.384 205.747 26.384ZM38.4396 64.72L47.7516 44.016H51.7836L42.7596 64.72H38.4396ZM42.1836 58.064L35.3356 44.016H40.3596L45.6396 55.824L42.1836 58.064ZM52.7004 50.832C52.7004 49.4027 53.031 48.1227 53.6924 46.992C54.375 45.8613 55.3244 44.976 56.5404 44.336C57.7564 43.6747 59.1537 43.344 60.7324 43.344C62.3324 43.344 63.719 43.6747 64.8924 44.336C66.0657 44.976 66.9617 45.8613 67.5804 46.992C68.2204 48.1227 68.5404 49.4027 68.5404 50.832C68.5404 52.2613 68.2204 53.552 67.5804 54.704C66.9617 55.8347 66.0657 56.7307 64.8924 57.392C63.719 58.0533 62.311 58.384 60.6684 58.384C59.1324 58.384 57.7564 58.0853 56.5404 57.488C55.3457 56.8907 54.407 56.0267 53.7244 54.896C53.0417 53.7653 52.7004 52.4107 52.7004 50.832ZM57.2124 50.864C57.2124 51.5893 57.3617 52.2507 57.6604 52.848C57.959 53.424 58.3644 53.8827 58.8764 54.224C59.3884 54.5653 59.9644 54.736 60.6044 54.736C61.3084 54.736 61.9164 54.5653 62.4284 54.224C62.9404 53.8827 63.335 53.424 63.6124 52.848C63.8897 52.2507 64.0284 51.5893 64.0284 50.864C64.0284 50.1173 63.8897 49.456 63.6124 48.88C63.335 48.304 62.9404 47.8453 62.4284 47.504C61.9164 47.1627 61.3084 46.992 60.6044 46.992C59.9644 46.992 59.3884 47.1627 58.8764 47.504C58.3644 47.8453 57.959 48.304 57.6604 48.88C57.3617 49.456 57.2124 50.1173 57.2124 50.864ZM76.5816 58.672C75.323 58.672 74.267 58.288 73.4136 57.52C72.5603 56.7307 72.1123 55.7173 72.0696 54.48V44.016H76.5496V52.816C76.5923 53.4347 76.7523 53.936 77.0296 54.32C77.307 54.6827 77.7763 54.864 78.4376 54.864C79.099 54.864 79.6643 54.64 80.1336 54.192C80.6243 53.744 80.9976 53.136 81.2536 52.368C81.531 51.5787 81.6696 50.6933 81.6696 49.712V44.016H86.1496V58H82.0856L81.7336 55.44L81.7976 55.728C81.4776 56.304 81.0723 56.816 80.5816 57.264C80.091 57.712 79.5043 58.0533 78.8216 58.288C78.1603 58.544 77.4136 58.672 76.5816 58.672ZM94.7891 44.016L95.2051 47.856L95.1091 47.28C95.5145 46.448 96.0691 45.744 96.7731 45.168C97.4771 44.5707 98.1705 44.112 98.8531 43.792C99.5571 43.472 100.09 43.312 100.453 43.312L100.229 47.792C99.1838 47.664 98.2878 47.8347 97.5411 48.304C96.7945 48.7733 96.2185 49.392 95.8131 50.16C95.4078 50.928 95.2051 51.7173 95.2051 52.528V58H90.7571V44.016H94.7891ZM120.688 58.288L112.304 44.016H117.616L122.384 53.68L119.632 53.584L123.76 44.016H128.752L120.816 58.288H120.688ZM129.825 50.832C129.825 49.4027 130.156 48.1227 130.817 46.992C131.5 45.8613 132.449 44.976 133.665 44.336C134.881 43.6747 136.279 43.344 137.857 43.344C139.457 43.344 140.844 43.6747 142.017 44.336C143.191 44.976 144.087 45.8613 144.705 46.992C145.345 48.1227 145.665 49.4027 145.665 50.832C145.665 52.2613 145.345 53.552 144.705 54.704C144.087 55.8347 143.191 56.7307 142.017 57.392C140.844 58.0533 139.436 58.384 137.793 58.384C136.257 58.384 134.881 58.0853 133.665 57.488C132.471 56.8907 131.532 56.0267 130.849 54.896C130.167 53.7653 129.825 52.4107 129.825 50.832ZM134.337 50.864C134.337 51.5893 134.487 52.2507 134.785 52.848C135.084 53.424 135.489 53.8827 136.001 54.224C136.513 54.5653 137.089 54.736 137.729 54.736C138.433 54.736 139.041 54.5653 139.553 54.224C140.065 53.8827 140.46 53.424 140.737 52.848C141.015 52.2507 141.153 51.5893 141.153 50.864C141.153 50.1173 141.015 49.456 140.737 48.88C140.46 48.304 140.065 47.8453 139.553 47.504C139.041 47.1627 138.433 46.992 137.729 46.992C137.089 46.992 136.513 47.1627 136.001 47.504C135.489 47.8453 135.084 48.304 134.785 48.88C134.487 49.456 134.337 50.1173 134.337 50.864ZM149.195 44.016H153.675V58H149.195V44.016ZM149.099 39.056C149.099 38.3947 149.355 37.8507 149.867 37.424C150.4 36.9973 150.965 36.784 151.563 36.784C152.16 36.784 152.704 36.9973 153.195 37.424C153.707 37.8507 153.963 38.3947 153.963 39.056C153.963 39.7173 153.707 40.2613 153.195 40.688C152.704 41.0933 152.16 41.296 151.563 41.296C150.965 41.296 150.4 41.0933 149.867 40.688C149.355 40.2613 149.099 39.7173 149.099 39.056ZM170.16 56.752C169.542 57.2427 168.763 57.6373 167.824 57.936C166.907 58.2347 166 58.384 165.104 58.384C163.504 58.384 162.107 58.096 160.912 57.52C159.739 56.9227 158.822 56.08 158.16 54.992C157.52 53.8827 157.2 52.5493 157.2 50.992C157.2 49.4347 157.552 48.112 158.256 47.024C158.96 45.9147 159.878 45.072 161.008 44.496C162.16 43.92 163.366 43.632 164.624 43.632C165.883 43.632 166.971 43.8027 167.888 44.144C168.827 44.4853 169.627 44.9333 170.288 45.488L168.112 48.368C167.814 48.1333 167.398 47.8987 166.864 47.664C166.352 47.408 165.744 47.28 165.04 47.28C164.422 47.28 163.856 47.44 163.344 47.76C162.832 48.08 162.427 48.5173 162.128 49.072C161.83 49.6267 161.68 50.2667 161.68 50.992C161.68 51.6747 161.84 52.304 162.16 52.88C162.48 53.456 162.918 53.9147 163.472 54.256C164.048 54.576 164.72 54.736 165.488 54.736C165.979 54.736 166.427 54.672 166.832 54.544C167.259 54.3947 167.622 54.192 167.92 53.936L170.16 56.752ZM180.481 58.384C178.774 58.384 177.324 58.064 176.129 57.424C174.956 56.784 174.06 55.8987 173.441 54.768C172.822 53.6373 172.513 52.336 172.513 50.864C172.513 49.456 172.876 48.1867 173.601 47.056C174.326 45.9253 175.297 45.0293 176.513 44.368C177.729 43.6853 179.084 43.344 180.577 43.344C182.582 43.344 184.225 43.9307 185.505 45.104C186.806 46.256 187.649 47.9307 188.033 50.128L177.153 53.584L176.161 51.152L184.033 48.496L183.105 48.912C182.934 48.3573 182.625 47.8773 182.177 47.472C181.75 47.0453 181.1 46.832 180.225 46.832C179.564 46.832 178.977 46.992 178.465 47.312C177.974 47.6107 177.59 48.048 177.313 48.624C177.057 49.1787 176.929 49.84 176.929 50.608C176.929 51.4827 177.089 52.2187 177.409 52.816C177.729 53.392 178.166 53.8293 178.721 54.128C179.276 54.4267 179.894 54.576 180.577 54.576C181.068 54.576 181.537 54.4907 181.985 54.32C182.454 54.1493 182.913 53.9253 183.361 53.648L185.345 56.976C184.598 57.4027 183.788 57.744 182.913 58C182.06 58.256 181.249 58.384 180.481 58.384ZM62.4759 90V64.752H66.8599V78.832L66.8279 78.288C67.3185 77.4133 68.0119 76.7093 68.9079 76.176C69.8039 75.6213 70.9025 75.344 72.2039 75.344C73.5265 75.344 74.6252 75.7387 75.4999 76.528C76.3959 77.296 76.8545 78.2987 76.8759 79.536V90H72.3959V81.2C72.3745 80.5813 72.2039 80.0907 71.8839 79.728C71.5852 79.344 71.0732 79.152 70.3479 79.152C69.6652 79.152 69.0679 79.376 68.5559 79.824C68.0439 80.272 67.6492 80.88 67.3719 81.648C67.0945 82.416 66.9559 83.3013 66.9559 84.304V90H62.4759ZM88.3559 90.384C86.6492 90.384 85.1985 90.064 84.0039 89.424C82.8305 88.784 81.9345 87.8987 81.3159 86.768C80.6972 85.6373 80.3879 84.336 80.3879 82.864C80.3879 81.456 80.7505 80.1867 81.4759 79.056C82.2012 77.9253 83.1719 77.0293 84.3879 76.368C85.6039 75.6853 86.9585 75.344 88.4519 75.344C90.4572 75.344 92.0999 75.9307 93.3799 77.104C94.6812 78.256 95.5239 79.9307 95.9079 82.128L85.0279 85.584L84.0359 83.152L91.9079 80.496L90.9799 80.912C90.8092 80.3573 90.4999 79.8773 90.0519 79.472C89.6252 79.0453 88.9745 78.832 88.0999 78.832C87.4385 78.832 86.8519 78.992 86.3399 79.312C85.8492 79.6107 85.4652 80.048 85.1879 80.624C84.9319 81.1787 84.8039 81.84 84.8039 82.608C84.8039 83.4827 84.9639 84.2187 85.2839 84.816C85.6039 85.392 86.0412 85.8293 86.5959 86.128C87.1505 86.4267 87.7692 86.576 88.4519 86.576C88.9425 86.576 89.4119 86.4907 89.8599 86.32C90.3292 86.1493 90.7879 85.9253 91.2359 85.648L93.2199 88.976C92.4732 89.4027 91.6625 89.744 90.7879 90C89.9345 90.256 89.1239 90.384 88.3559 90.384ZM105.051 90.384C103.75 90.384 102.566 90.128 101.499 89.616C100.454 89.0827 99.622 88.272 99.0034 87.184C98.3847 86.096 98.0754 84.7093 98.0754 83.024C98.0754 81.4453 98.3954 80.08 99.0354 78.928C99.6754 77.776 100.518 76.8907 101.563 76.272C102.609 75.632 103.718 75.312 104.891 75.312C106.278 75.312 107.323 75.5467 108.027 76.016C108.753 76.464 109.35 76.9653 109.819 77.52L109.627 78.064L110.043 76.016H114.203V90H109.723V86.96L110.075 87.92C110.033 87.92 109.905 88.048 109.691 88.304C109.478 88.5387 109.158 88.8267 108.731 89.168C108.326 89.488 107.814 89.7653 107.195 90C106.598 90.256 105.883 90.384 105.051 90.384ZM106.331 86.736C106.865 86.736 107.345 86.6613 107.771 86.512C108.198 86.3413 108.571 86.1067 108.891 85.808C109.211 85.488 109.489 85.0933 109.723 84.624V81.2C109.553 80.7307 109.297 80.336 108.955 80.016C108.614 79.6747 108.209 79.4187 107.739 79.248C107.27 79.056 106.747 78.96 106.171 78.96C105.531 78.96 104.934 79.1307 104.379 79.472C103.846 79.792 103.419 80.24 103.099 80.816C102.779 81.392 102.619 82.0533 102.619 82.8C102.619 83.5467 102.79 84.2187 103.131 84.816C103.473 85.4133 103.921 85.8827 104.475 86.224C105.051 86.5653 105.67 86.736 106.331 86.736ZM122.852 76.016L123.268 79.856L123.172 79.28C123.577 78.448 124.132 77.744 124.836 77.168C125.54 76.5707 126.233 76.112 126.916 75.792C127.62 75.472 128.153 75.312 128.516 75.312L128.292 79.792C127.246 79.664 126.35 79.8347 125.604 80.304C124.857 80.7733 124.281 81.392 123.876 82.16C123.47 82.928 123.268 83.7173 123.268 84.528V90H118.82V76.016H122.852ZM137.016 90.384C135.714 90.384 134.552 90.0853 133.528 89.488C132.504 88.8693 131.693 87.984 131.096 86.832C130.52 85.68 130.232 84.3147 130.232 82.736C130.232 81.1573 130.552 79.8133 131.192 78.704C131.832 77.5947 132.706 76.752 133.816 76.176C134.925 75.6 136.184 75.312 137.592 75.312C138.488 75.312 139.341 75.4507 140.152 75.728C140.984 76.0053 141.677 76.432 142.232 77.008V78.416V64.752H146.68V90H142.2V87.28L142.552 88.24C141.826 88.8373 141.016 89.3493 140.12 89.776C139.224 90.1813 138.189 90.384 137.016 90.384ZM138.488 86.608C139.085 86.608 139.608 86.5333 140.056 86.384C140.525 86.2133 140.93 85.9787 141.272 85.68C141.634 85.36 141.944 84.9653 142.2 84.496V81.072C142.029 80.6027 141.762 80.208 141.4 79.888C141.058 79.5467 140.632 79.2907 140.12 79.12C139.629 78.928 139.085 78.832 138.488 78.832C137.826 78.832 137.208 79.0027 136.632 79.344C136.077 79.664 135.629 80.112 135.288 80.688C134.946 81.264 134.776 81.9253 134.776 82.672C134.776 83.4187 134.946 84.0907 135.288 84.688C135.629 85.2853 136.077 85.7547 136.632 86.096C137.208 86.4373 137.826 86.608 138.488 86.608ZM153.528 83.696V82C153.528 80.9333 153.656 80.048 153.912 79.344C154.19 78.6187 154.531 78 154.936 77.488C155.363 76.976 155.79 76.5173 156.216 76.112C156.792 75.5787 157.304 75.056 157.752 74.544C158.2 74.0107 158.424 73.3173 158.424 72.464C158.424 71.9947 158.307 71.6 158.072 71.28C157.838 70.96 157.55 70.7147 157.208 70.544C156.888 70.352 156.568 70.256 156.248 70.256C155.63 70.256 155.107 70.4053 154.68 70.704C154.275 70.9813 153.934 71.344 153.656 71.792C153.4 72.24 153.176 72.7093 152.984 73.2L149.304 71.472C149.432 71.088 149.656 70.5973 149.976 70C150.296 69.4027 150.744 68.8053 151.32 68.208C151.918 67.6107 152.654 67.1093 153.528 66.704C154.424 66.2987 155.491 66.096 156.728 66.096C157.944 66.096 159.032 66.3093 159.992 66.736C160.974 67.1413 161.752 67.7813 162.328 68.656C162.904 69.5093 163.192 70.64 163.192 72.048C163.192 73.2213 163.032 74.1707 162.712 74.896C162.392 75.6213 161.998 76.24 161.528 76.752C161.059 77.2427 160.59 77.7333 160.12 78.224C159.758 78.5867 159.406 78.992 159.064 79.44C158.744 79.8667 158.488 80.368 158.296 80.944C158.104 81.52 158.008 82.2133 158.008 83.024V83.696H153.528ZM155.768 90.448C155 90.448 154.371 90.2453 153.88 89.84C153.39 89.4133 153.144 88.8587 153.144 88.176C153.144 87.5147 153.39 86.96 153.88 86.512C154.392 86.064 155.022 85.84 155.768 85.84C156.515 85.84 157.123 86.064 157.592 86.512C158.083 86.96 158.328 87.5147 158.328 88.176C158.328 88.8587 158.094 89.4133 157.624 89.84C157.155 90.2453 156.536 90.448 155.768 90.448Z" fill="white"/>
</svg>
