<svg width="168" height="41" viewBox="0 0 168 41" fill="none" xmlns="http://www.w3.org/2000/svg">
<path d="M14.2298 1.38H17.6298L20.7698 10.62L20.3098 10.42L23.0498 3.6L24.3898 7.58L20.1498 16.68L14.2298 1.38ZM21.6098 1.38H24.4898L28.1098 10.32L27.5898 10.24L30.2898 1.38H33.4098L27.7298 16.64L21.6098 1.38ZM37.3817 16.24C36.5684 16.24 35.8284 16.08 35.1617 15.76C34.5084 15.4267 33.9884 14.92 33.6017 14.24C33.2151 13.56 33.0217 12.6933 33.0217 11.64C33.0217 10.6533 33.2217 9.8 33.6217 9.08C34.0217 8.36 34.5484 7.80667 35.2017 7.42C35.8551 7.02 36.5484 6.82 37.2817 6.82C38.1484 6.82 38.8017 6.96667 39.2417 7.26C39.6951 7.54 40.0684 7.85333 40.3617 8.2L40.2417 8.54L40.5017 7.26H43.1017V16H40.3017V14.1L40.5217 14.7C40.4951 14.7 40.4151 14.78 40.2817 14.94C40.1484 15.0867 39.9484 15.2667 39.6817 15.48C39.4284 15.68 39.1084 15.8533 38.7217 16C38.3484 16.16 37.9017 16.24 37.3817 16.24ZM38.1817 13.96C38.5151 13.96 38.8151 13.9133 39.0817 13.82C39.3484 13.7133 39.5817 13.5667 39.7817 13.38C39.9817 13.18 40.1551 12.9333 40.3017 12.64V10.5C40.1951 10.2067 40.0351 9.96 39.8217 9.76C39.6084 9.54667 39.3551 9.38667 39.0617 9.28C38.7684 9.16 38.4417 9.1 38.0817 9.1C37.6817 9.1 37.3084 9.20667 36.9617 9.42C36.6284 9.62 36.3617 9.9 36.1617 10.26C35.9617 10.62 35.8617 11.0333 35.8617 11.5C35.8617 11.9667 35.9684 12.3867 36.1817 12.76C36.3951 13.1333 36.6751 13.4267 37.0217 13.64C37.3817 13.8533 37.7684 13.96 38.1817 13.96ZM48.5269 7.26L48.7469 8.82L48.7069 8.68C49.0135 8.13333 49.4469 7.69333 50.0069 7.36C50.5669 7.01333 51.2535 6.84 52.0669 6.84C52.8935 6.84 53.5802 7.08667 54.1269 7.58C54.6869 8.06 54.9735 8.68667 54.9869 9.46V16H52.1869V10.5C52.1735 10.1133 52.0669 9.80667 51.8669 9.58C51.6802 9.34 51.3602 9.22 50.9069 9.22C50.4802 9.22 50.1069 9.36 49.7869 9.64C49.4669 9.92 49.2202 10.3 49.0469 10.78C48.8735 11.26 48.7869 11.8133 48.7869 12.44V16H45.9869V7.26H48.5269ZM58.6819 3.42H61.4819V7.22H63.6019V9.4H61.4819V16H58.6819V9.4H57.3219V7.22H58.6819V3.42ZM73.0569 3.42H75.8569V7.22H77.9769V9.4H75.8569V16H73.0569V9.4H71.6969V7.22H73.0569V3.42ZM79.428 11.52C79.428 10.6267 79.6346 9.82667 80.048 9.12C80.4746 8.41333 81.068 7.86 81.828 7.46C82.588 7.04667 83.4613 6.84 84.448 6.84C85.448 6.84 86.3146 7.04667 87.048 7.46C87.7813 7.86 88.3413 8.41333 88.728 9.12C89.128 9.82667 89.328 10.6267 89.328 11.52C89.328 12.4133 89.128 13.22 88.728 13.94C88.3413 14.6467 87.7813 15.2067 87.048 15.62C86.3146 16.0333 85.4346 16.24 84.408 16.24C83.448 16.24 82.588 16.0533 81.828 15.68C81.0813 15.3067 80.4946 14.7667 80.068 14.06C79.6413 13.3533 79.428 12.5067 79.428 11.52ZM82.248 11.54C82.248 11.9933 82.3413 12.4067 82.528 12.78C82.7146 13.14 82.968 13.4267 83.288 13.64C83.608 13.8533 83.968 13.96 84.368 13.96C84.808 13.96 85.188 13.8533 85.508 13.64C85.828 13.4267 86.0746 13.14 86.248 12.78C86.4213 12.4067 86.508 11.9933 86.508 11.54C86.508 11.0733 86.4213 10.66 86.248 10.3C86.0746 9.94 85.828 9.65333 85.508 9.44C85.188 9.22667 84.808 9.12 84.368 9.12C83.968 9.12 83.608 9.22667 83.288 9.44C82.968 9.65333 82.7146 9.94 82.528 10.3C82.3413 10.66 82.248 11.0733 82.248 11.54ZM100.578 7.26L100.798 8.8L100.758 8.68C101.104 8.09333 101.538 7.64 102.058 7.32C102.578 6.98667 103.204 6.82 103.938 6.82C104.418 6.82 104.838 6.88667 105.198 7.02C105.571 7.15333 105.884 7.35333 106.138 7.62C106.391 7.87333 106.564 8.20667 106.658 8.62L106.558 8.64C106.931 8.09333 107.378 7.65333 107.898 7.32C108.431 6.98667 108.984 6.82 109.558 6.82C110.424 6.82 111.111 7.06667 111.618 7.56C112.138 8.04 112.404 8.66667 112.418 9.44V16H109.638V10.6C109.624 10.2133 109.564 9.9 109.458 9.66C109.351 9.40667 109.104 9.26667 108.718 9.24C108.264 9.24 107.878 9.4 107.558 9.72C107.251 10.0267 107.018 10.4267 106.858 10.92C106.711 11.4 106.638 11.9 106.638 12.42V16H103.838V10.6C103.824 10.2133 103.751 9.9 103.618 9.66C103.498 9.40667 103.244 9.26667 102.858 9.24C102.418 9.24 102.044 9.4 101.738 9.72C101.444 10.0267 101.218 10.42 101.058 10.9C100.911 11.38 100.838 11.8733 100.838 12.38V16H98.0377V7.26H100.578ZM118.983 16.24C118.17 16.24 117.43 16.08 116.763 15.76C116.11 15.4267 115.59 14.92 115.203 14.24C114.817 13.56 114.623 12.6933 114.623 11.64C114.623 10.6533 114.823 9.8 115.223 9.08C115.623 8.36 116.15 7.80667 116.803 7.42C117.457 7.02 118.15 6.82 118.883 6.82C119.75 6.82 120.403 6.96667 120.843 7.26C121.297 7.54 121.67 7.85333 121.963 8.2L121.843 8.54L122.103 7.26H124.703V16H121.903V14.1L122.123 14.7C122.097 14.7 122.017 14.78 121.883 14.94C121.75 15.0867 121.55 15.2667 121.283 15.48C121.03 15.68 120.71 15.8533 120.323 16C119.95 16.16 119.503 16.24 118.983 16.24ZM119.783 13.96C120.117 13.96 120.417 13.9133 120.683 13.82C120.95 13.7133 121.183 13.5667 121.383 13.38C121.583 13.18 121.757 12.9333 121.903 12.64V10.5C121.797 10.2067 121.637 9.96 121.423 9.76C121.21 9.54667 120.957 9.38667 120.663 9.28C120.37 9.16 120.043 9.1 119.683 9.1C119.283 9.1 118.91 9.20667 118.563 9.42C118.23 9.62 117.963 9.9 117.763 10.26C117.563 10.62 117.463 11.0333 117.463 11.5C117.463 11.9667 117.57 12.3867 117.783 12.76C117.997 13.1333 118.277 13.4267 118.623 13.64C118.983 13.8533 119.37 13.96 119.783 13.96ZM127.588 16V0.219999H130.388V16H127.588ZM132.608 10.06L136.568 16H133.308L130.768 11.66L132.608 10.06ZM129.548 13.58L129.268 10.92L134.548 7.04L136.248 8.54L129.548 13.58ZM142.592 16.24C141.525 16.24 140.618 16.04 139.872 15.64C139.138 15.24 138.578 14.6867 138.192 13.98C137.805 13.2733 137.612 12.46 137.612 11.54C137.612 10.66 137.838 9.86667 138.292 9.16C138.745 8.45333 139.352 7.89333 140.112 7.48C140.872 7.05333 141.718 6.84 142.652 6.84C143.905 6.84 144.932 7.20667 145.732 7.94C146.545 8.66 147.072 9.70667 147.312 11.08L140.512 13.24L139.892 11.72L144.812 10.06L144.232 10.32C144.125 9.97333 143.932 9.67333 143.652 9.42C143.385 9.15333 142.978 9.02 142.432 9.02C142.018 9.02 141.652 9.12 141.332 9.32C141.025 9.50667 140.785 9.78 140.612 10.14C140.452 10.4867 140.372 10.9 140.372 11.38C140.372 11.9267 140.472 12.3867 140.672 12.76C140.872 13.12 141.145 13.3933 141.492 13.58C141.838 13.7667 142.225 13.86 142.652 13.86C142.958 13.86 143.252 13.8067 143.532 13.7C143.825 13.5933 144.112 13.4533 144.392 13.28L145.632 15.36C145.165 15.6267 144.658 15.84 144.112 16C143.578 16.16 143.072 16.24 142.592 16.24ZM2.38023 40.2L8.20024 27.26H10.7202L5.08023 40.2H2.38023ZM4.72023 36.04L0.440234 27.26H3.58023L6.88023 34.64L4.72023 36.04ZM11.2932 31.52C11.2932 30.6267 11.4999 29.8267 11.9132 29.12C12.3399 28.4133 12.9332 27.86 13.6932 27.46C14.4532 27.0467 15.3265 26.84 16.3132 26.84C17.3132 26.84 18.1799 27.0467 18.9132 27.46C19.6465 27.86 20.2065 28.4133 20.5932 29.12C20.9932 29.8267 21.1932 30.6267 21.1932 31.52C21.1932 32.4133 20.9932 33.22 20.5932 33.94C20.2065 34.6467 19.6465 35.2067 18.9132 35.62C18.1799 36.0333 17.2999 36.24 16.2732 36.24C15.3132 36.24 14.4532 36.0533 13.6932 35.68C12.9465 35.3067 12.3599 34.7667 11.9332 34.06C11.5065 33.3533 11.2932 32.5067 11.2932 31.52ZM14.1132 31.54C14.1132 31.9933 14.2065 32.4067 14.3932 32.78C14.5799 33.14 14.8332 33.4267 15.1532 33.64C15.4732 33.8533 15.8332 33.96 16.2332 33.96C16.6732 33.96 17.0532 33.8533 17.3732 33.64C17.6932 33.4267 17.9399 33.14 18.1132 32.78C18.2865 32.4067 18.3732 31.9933 18.3732 31.54C18.3732 31.0733 18.2865 30.66 18.1132 30.3C17.9399 29.94 17.6932 29.6533 17.3732 29.44C17.0532 29.2267 16.6732 29.12 16.2332 29.12C15.8332 29.12 15.4732 29.2267 15.1532 29.44C14.8332 29.6533 14.5799 29.94 14.3932 30.3C14.2065 30.66 14.1132 31.0733 14.1132 31.54ZM26.219 36.42C25.4323 36.42 24.7723 36.18 24.239 35.7C23.7057 35.2067 23.4257 34.5733 23.399 33.8V27.26H26.199V32.76C26.2257 33.1467 26.3257 33.46 26.499 33.7C26.6723 33.9267 26.9657 34.04 27.379 34.04C27.7923 34.04 28.1457 33.9 28.439 33.62C28.7457 33.34 28.979 32.96 29.139 32.48C29.3123 31.9867 29.399 31.4333 29.399 30.82V27.26H32.199V36H29.659L29.439 34.4L29.479 34.58C29.279 34.94 29.0257 35.26 28.719 35.54C28.4123 35.82 28.0457 36.0333 27.619 36.18C27.2057 36.34 26.739 36.42 26.219 36.42ZM37.5987 27.26L37.8587 29.66L37.7987 29.3C38.052 28.78 38.3987 28.34 38.8387 27.98C39.2787 27.6067 39.712 27.32 40.1387 27.12C40.5787 26.92 40.912 26.82 41.1387 26.82L40.9987 29.62C40.3453 29.54 39.7853 29.6467 39.3187 29.94C38.852 30.2333 38.492 30.62 38.2387 31.1C37.9853 31.58 37.8587 32.0733 37.8587 32.58V36H35.0787V27.26H37.5987ZM53.7857 36.18L48.5457 27.26H51.8657L54.8457 33.3L53.1257 33.24L55.7057 27.26H58.8257L53.8657 36.18H53.7857ZM59.4963 31.52C59.4963 30.6267 59.703 29.8267 60.1163 29.12C60.543 28.4133 61.1363 27.86 61.8963 27.46C62.6563 27.0467 63.5297 26.84 64.5163 26.84C65.5163 26.84 66.383 27.0467 67.1163 27.46C67.8497 27.86 68.4097 28.4133 68.7963 29.12C69.1963 29.8267 69.3963 30.6267 69.3963 31.52C69.3963 32.4133 69.1963 33.22 68.7963 33.94C68.4097 34.6467 67.8497 35.2067 67.1163 35.62C66.383 36.0333 65.503 36.24 64.4763 36.24C63.5163 36.24 62.6563 36.0533 61.8963 35.68C61.1497 35.3067 60.563 34.7667 60.1363 34.06C59.7097 33.3533 59.4963 32.5067 59.4963 31.52ZM62.3163 31.54C62.3163 31.9933 62.4097 32.4067 62.5963 32.78C62.783 33.14 63.0363 33.4267 63.3563 33.64C63.6763 33.8533 64.0363 33.96 64.4363 33.96C64.8763 33.96 65.2563 33.8533 65.5763 33.64C65.8963 33.4267 66.143 33.14 66.3163 32.78C66.4897 32.4067 66.5763 31.9933 66.5763 31.54C66.5763 31.0733 66.4897 30.66 66.3163 30.3C66.143 29.94 65.8963 29.6533 65.5763 29.44C65.2563 29.2267 64.8763 29.12 64.4363 29.12C64.0363 29.12 63.6763 29.2267 63.3563 29.44C63.0363 29.6533 62.783 29.94 62.5963 30.3C62.4097 30.66 62.3163 31.0733 62.3163 31.54ZM71.6021 27.26H74.4021V36H71.6021V27.26ZM71.5421 24.16C71.5421 23.7467 71.7021 23.4067 72.0221 23.14C72.3554 22.8733 72.7088 22.74 73.0821 22.74C73.4554 22.74 73.7954 22.8733 74.1021 23.14C74.4221 23.4067 74.5821 23.7467 74.5821 24.16C74.5821 24.5733 74.4221 24.9133 74.1021 25.18C73.7954 25.4333 73.4554 25.56 73.0821 25.56C72.7088 25.56 72.3554 25.4333 72.0221 25.18C71.7021 24.9133 71.5421 24.5733 71.5421 24.16ZM84.7057 35.22C84.319 35.5267 83.8324 35.7733 83.2457 35.96C82.6724 36.1467 82.1057 36.24 81.5457 36.24C80.5457 36.24 79.6724 36.06 78.9257 35.7C78.1924 35.3267 77.619 34.8 77.2057 34.12C76.8057 33.4267 76.6057 32.5933 76.6057 31.62C76.6057 30.6467 76.8257 29.82 77.2657 29.14C77.7057 28.4467 78.279 27.92 78.9857 27.56C79.7057 27.2 80.459 27.02 81.2457 27.02C82.0324 27.02 82.7124 27.1267 83.2857 27.34C83.8724 27.5533 84.3724 27.8333 84.7857 28.18L83.4257 29.98C83.239 29.8333 82.979 29.6867 82.6457 29.54C82.3257 29.38 81.9457 29.3 81.5057 29.3C81.119 29.3 80.7657 29.4 80.4457 29.6C80.1257 29.8 79.8724 30.0733 79.6857 30.42C79.499 30.7667 79.4057 31.1667 79.4057 31.62C79.4057 32.0467 79.5057 32.44 79.7057 32.8C79.9057 33.16 80.179 33.4467 80.5257 33.66C80.8857 33.86 81.3057 33.96 81.7857 33.96C82.0924 33.96 82.3724 33.92 82.6257 33.84C82.8924 33.7467 83.119 33.62 83.3057 33.46L84.7057 35.22ZM91.156 36.24C90.0893 36.24 89.1827 36.04 88.436 35.64C87.7027 35.24 87.1427 34.6867 86.756 33.98C86.3693 33.2733 86.176 32.46 86.176 31.54C86.176 30.66 86.4027 29.8667 86.856 29.16C87.3093 28.4533 87.916 27.8933 88.676 27.48C89.436 27.0533 90.2827 26.84 91.216 26.84C92.4693 26.84 93.496 27.2067 94.296 27.94C95.1093 28.66 95.636 29.7067 95.876 31.08L89.076 33.24L88.456 31.72L93.376 30.06L92.796 30.32C92.6893 29.9733 92.496 29.6733 92.216 29.42C91.9493 29.1533 91.5427 29.02 90.996 29.02C90.5827 29.02 90.216 29.12 89.896 29.32C89.5893 29.5067 89.3493 29.78 89.176 30.14C89.016 30.4867 88.936 30.9 88.936 31.38C88.936 31.9267 89.036 32.3867 89.236 32.76C89.436 33.12 89.7093 33.3933 90.056 33.58C90.4027 33.7667 90.7893 33.86 91.216 33.86C91.5227 33.86 91.816 33.8067 92.096 33.7C92.3893 33.5933 92.676 33.4533 92.956 33.28L94.196 35.36C93.7293 35.6267 93.2227 35.84 92.676 36C92.1427 36.16 91.636 36.24 91.156 36.24ZM104.415 36V20.22H107.155V29.02L107.135 28.68C107.441 28.1333 107.875 27.6933 108.435 27.36C108.995 27.0133 109.681 26.84 110.495 26.84C111.321 26.84 112.008 27.0867 112.555 27.58C113.115 28.06 113.401 28.6867 113.415 29.46V36H110.615V30.5C110.601 30.1133 110.495 29.8067 110.295 29.58C110.108 29.34 109.788 29.22 109.335 29.22C108.908 29.22 108.535 29.36 108.215 29.64C107.895 29.92 107.648 30.3 107.475 30.78C107.301 31.26 107.215 31.8133 107.215 32.44V36H104.415ZM120.59 36.24C119.523 36.24 118.616 36.04 117.87 35.64C117.136 35.24 116.576 34.6867 116.19 33.98C115.803 33.2733 115.61 32.46 115.61 31.54C115.61 30.66 115.836 29.8667 116.29 29.16C116.743 28.4533 117.35 27.8933 118.11 27.48C118.87 27.0533 119.716 26.84 120.65 26.84C121.903 26.84 122.93 27.2067 123.73 27.94C124.543 28.66 125.07 29.7067 125.31 31.08L118.51 33.24L117.89 31.72L122.81 30.06L122.23 30.32C122.123 29.9733 121.93 29.6733 121.65 29.42C121.383 29.1533 120.976 29.02 120.43 29.02C120.016 29.02 119.65 29.12 119.33 29.32C119.023 29.5067 118.783 29.78 118.61 30.14C118.45 30.4867 118.37 30.9 118.37 31.38C118.37 31.9267 118.47 32.3867 118.67 32.76C118.87 33.12 119.143 33.3933 119.49 33.58C119.836 33.7667 120.223 33.86 120.65 33.86C120.956 33.86 121.25 33.8067 121.53 33.7C121.823 33.5933 122.11 33.4533 122.39 33.28L123.63 35.36C123.163 35.6267 122.656 35.84 122.11 36C121.576 36.16 121.07 36.24 120.59 36.24ZM131.024 36.24C130.211 36.24 129.471 36.08 128.804 35.76C128.151 35.4267 127.631 34.92 127.244 34.24C126.858 33.56 126.664 32.6933 126.664 31.64C126.664 30.6533 126.864 29.8 127.264 29.08C127.664 28.36 128.191 27.8067 128.844 27.42C129.498 27.02 130.191 26.82 130.924 26.82C131.791 26.82 132.444 26.9667 132.884 27.26C133.338 27.54 133.711 27.8533 134.004 28.2L133.884 28.54L134.144 27.26H136.744V36H133.944V34.1L134.164 34.7C134.138 34.7 134.058 34.78 133.924 34.94C133.791 35.0867 133.591 35.2667 133.324 35.48C133.071 35.68 132.751 35.8533 132.364 36C131.991 36.16 131.544 36.24 131.024 36.24ZM131.824 33.96C132.158 33.96 132.458 33.9133 132.724 33.82C132.991 33.7133 133.224 33.5667 133.424 33.38C133.624 33.18 133.798 32.9333 133.944 32.64V30.5C133.838 30.2067 133.678 29.96 133.464 29.76C133.251 29.5467 132.998 29.3867 132.704 29.28C132.411 29.16 132.084 29.1 131.724 29.1C131.324 29.1 130.951 29.2067 130.604 29.42C130.271 29.62 130.004 29.9 129.804 30.26C129.604 30.62 129.504 31.0333 129.504 31.5C129.504 31.9667 129.611 32.3867 129.824 32.76C130.038 33.1333 130.318 33.4267 130.664 33.64C131.024 33.8533 131.411 33.96 131.824 33.96ZM142.149 27.26L142.409 29.66L142.349 29.3C142.603 28.78 142.949 28.34 143.389 27.98C143.829 27.6067 144.263 27.32 144.689 27.12C145.129 26.92 145.463 26.82 145.689 26.82L145.549 29.62C144.896 29.54 144.336 29.6467 143.869 29.94C143.403 30.2333 143.043 30.62 142.789 31.1C142.536 31.58 142.409 32.0733 142.409 32.58V36H139.629V27.26H142.149ZM151.002 36.24C150.189 36.24 149.462 36.0533 148.822 35.68C148.182 35.2933 147.675 34.74 147.302 34.02C146.942 33.3 146.762 32.4467 146.762 31.46C146.762 30.4733 146.962 29.6333 147.362 28.94C147.762 28.2467 148.309 27.72 149.002 27.36C149.695 27 150.482 26.82 151.362 26.82C151.922 26.82 152.455 26.9067 152.962 27.08C153.482 27.2533 153.915 27.52 154.262 27.88V28.76V20.22H157.042V36H154.242V34.3L154.462 34.9C154.009 35.2733 153.502 35.5933 152.942 35.86C152.382 36.1133 151.735 36.24 151.002 36.24ZM151.922 33.88C152.295 33.88 152.622 33.8333 152.902 33.74C153.195 33.6333 153.449 33.4867 153.662 33.3C153.889 33.1 154.082 32.8533 154.242 32.56V30.42C154.135 30.1267 153.969 29.88 153.742 29.68C153.529 29.4667 153.262 29.3067 152.942 29.2C152.635 29.08 152.295 29.02 151.922 29.02C151.509 29.02 151.122 29.1267 150.762 29.34C150.415 29.54 150.135 29.82 149.922 30.18C149.709 30.54 149.602 30.9533 149.602 31.42C149.602 31.8867 149.709 32.3067 149.922 32.68C150.135 33.0533 150.415 33.3467 150.762 33.56C151.122 33.7733 151.509 33.88 151.922 33.88ZM161.322 32.06V31C161.322 30.3333 161.402 29.78 161.562 29.34C161.736 28.8867 161.949 28.5 162.202 28.18C162.469 27.86 162.736 27.5733 163.002 27.32C163.362 26.9867 163.682 26.66 163.962 26.34C164.242 26.0067 164.382 25.5733 164.382 25.04C164.382 24.7467 164.309 24.5 164.162 24.3C164.016 24.1 163.836 23.9467 163.622 23.84C163.422 23.72 163.222 23.66 163.022 23.66C162.636 23.66 162.309 23.7533 162.042 23.94C161.789 24.1133 161.576 24.34 161.402 24.62C161.242 24.9 161.102 25.1933 160.982 25.5L158.682 24.42C158.762 24.18 158.902 23.8733 159.102 23.5C159.302 23.1267 159.582 22.7533 159.942 22.38C160.316 22.0067 160.776 21.6933 161.322 21.44C161.882 21.1867 162.549 21.06 163.322 21.06C164.082 21.06 164.762 21.1933 165.362 21.46C165.976 21.7133 166.462 22.1133 166.822 22.66C167.182 23.1933 167.362 23.9 167.362 24.78C167.362 25.5133 167.262 26.1067 167.062 26.56C166.862 27.0133 166.616 27.4 166.322 27.72C166.029 28.0267 165.736 28.3333 165.442 28.64C165.216 28.8667 164.996 29.12 164.782 29.4C164.582 29.6667 164.422 29.98 164.302 30.34C164.182 30.7 164.122 31.1333 164.122 31.64V32.06H161.322ZM162.722 36.28C162.242 36.28 161.849 36.1533 161.542 35.9C161.236 35.6333 161.082 35.2867 161.082 34.86C161.082 34.4467 161.236 34.1 161.542 33.82C161.862 33.54 162.256 33.4 162.722 33.4C163.189 33.4 163.569 33.54 163.862 33.82C164.169 34.1 164.322 34.4467 164.322 34.86C164.322 35.2867 164.176 35.6333 163.882 35.9C163.589 36.1533 163.202 36.28 162.722 36.28Z" fill="white"/>
</svg>
