<svg width="124" height="24" viewBox="0 0 124 24" fill="none" xmlns="http://www.w3.org/2000/svg">
<path d="M3.39094 8C3.12327 8 2.98944 7.86433 2.98944 7.593V5.283L0.486941 1.3065C0.351275 1.07917 0.393441 0.890333 0.613441 0.74C0.844441 0.600666 1.03144 0.642833 1.17444 0.8665L3.39094 4.414L5.69544 0.8665C5.76511 0.760166 5.84761 0.697833 5.94294 0.6795C6.03827 0.6575 6.13911 0.683167 6.24544 0.7565C6.48011 0.8995 6.52228 1.08283 6.37194 1.3065L3.79794 5.283V7.593C3.79794 7.86433 3.66227 8 3.39094 8ZM8.56352 8C7.84852 8 7.31869 7.8295 6.97402 7.4885C6.63302 7.1475 6.46252 6.62133 6.46252 5.91V4.645C6.46252 3.92267 6.63302 3.39283 6.97402 3.0555C7.31869 2.7145 7.84852 2.54583 8.56352 2.5495H9.46552C10.1805 2.5495 10.7085 2.72 11.0495 3.061C11.3905 3.402 11.561 3.93 11.561 4.645V5.899C11.561 6.614 11.3905 7.14383 11.0495 7.4885C10.7085 7.8295 10.1805 8 9.46552 8H8.56352ZM7.27102 5.91C7.27102 6.39767 7.36269 6.73317 7.54602 6.9165C7.72935 7.09983 8.06852 7.1915 8.56352 7.1915H9.46552C9.96052 7.1915 10.2979 7.09983 10.4775 6.9165C10.6609 6.73317 10.7525 6.394 10.7525 5.899V4.645C10.7525 4.15 10.6609 3.81267 10.4775 3.633C10.2979 3.44967 9.96052 3.358 9.46552 3.358H8.56352C8.23352 3.358 7.97502 3.3965 7.78802 3.4735C7.60102 3.5505 7.46719 3.6825 7.38652 3.8695C7.30952 4.0565 7.27102 4.315 7.27102 4.645V5.91ZM18.0185 2.5495C18.2899 2.5495 18.4255 2.68333 18.4255 2.951V7.593C18.4255 7.86433 18.2899 8 18.0185 8C17.7509 8 17.617 7.86433 17.617 7.593V7.3015C17.2394 7.76717 16.6472 8 15.8405 8H15.5325C14.8175 8 14.2895 7.8295 13.9485 7.4885C13.6075 7.14383 13.437 6.614 13.437 5.899V2.951C13.437 2.68333 13.5709 2.5495 13.8385 2.5495C14.1099 2.5495 14.2455 2.68333 14.2455 2.951V5.899C14.2455 6.394 14.3372 6.73317 14.5205 6.9165C14.7075 7.09983 15.0449 7.1915 15.5325 7.1915H15.8405C16.3245 7.1915 16.7297 7.12733 17.056 6.999C17.3824 6.867 17.5694 6.66717 17.617 6.3995V2.951C17.617 2.68333 17.7509 2.5495 18.0185 2.5495ZM24.261 8C23.9897 8 23.854 7.86433 23.854 7.593V2.951C23.854 2.68333 23.9897 2.5495 24.261 2.5495C24.5287 2.5495 24.6625 2.68333 24.6625 2.951V3.248C25.0365 2.78233 25.6287 2.5495 26.439 2.5495H26.747C27.462 2.5495 27.99 2.72 28.331 3.061C28.672 3.402 28.8425 3.93 28.8425 4.645V7.593C28.8425 7.86433 28.7087 8 28.441 8C28.1697 8 28.034 7.86433 28.034 7.593V4.645C28.034 4.15 27.9405 3.81267 27.7535 3.633C27.5702 3.44967 27.2347 3.358 26.747 3.358H26.439C25.955 3.358 25.5499 3.42217 25.2235 3.5505C24.8972 3.67517 24.7102 3.87317 24.6625 4.1445V7.593C24.6625 7.86433 24.5287 8 24.261 8ZM31.5269 5.602V5.91C31.5269 6.39767 31.6185 6.73317 31.8019 6.9165C31.9852 7.09983 32.3244 7.1915 32.8194 7.1915H33.7214C34.1247 7.1915 34.4199 7.14933 34.6069 7.065C34.7975 6.977 34.9204 6.82483 34.9754 6.6085C35.0047 6.4875 35.0505 6.394 35.1129 6.328C35.1789 6.262 35.276 6.229 35.4044 6.229C35.54 6.229 35.6427 6.26567 35.7124 6.339C35.782 6.40867 35.8059 6.51133 35.7839 6.647C35.7142 7.10533 35.507 7.44633 35.1624 7.67C34.8214 7.89 34.341 8 33.7214 8H32.8194C32.1044 8 31.5745 7.8295 31.2299 7.4885C30.8889 7.1475 30.7184 6.62133 30.7184 5.91V4.645C30.7184 3.919 30.8889 3.38733 31.2299 3.05C31.5745 2.709 32.1044 2.54217 32.8194 2.5495H33.7214C34.4364 2.5495 34.9644 2.72 35.3054 3.061C35.6464 3.39833 35.8169 3.92633 35.8169 4.645V5.195C35.8169 5.46633 35.683 5.602 35.4154 5.602H31.5269ZM32.8194 3.358C32.3244 3.35067 31.9852 3.43867 31.8019 3.622C31.6185 3.80533 31.5269 4.14633 31.5269 4.645V4.7935H35.0084V4.645C35.0084 4.15 34.9167 3.81267 34.7334 3.633C34.5537 3.44967 34.2164 3.358 33.7214 3.358H32.8194ZM38.3804 5.602V5.91C38.3804 6.39767 38.4721 6.73317 38.6554 6.9165C38.8387 7.09983 39.1779 7.1915 39.6729 7.1915H40.5749C40.9782 7.1915 41.2734 7.14933 41.4604 7.065C41.6511 6.977 41.7739 6.82483 41.8289 6.6085C41.8582 6.4875 41.9041 6.394 41.9664 6.328C42.0324 6.262 42.1296 6.229 42.2579 6.229C42.3936 6.229 42.4962 6.26567 42.5659 6.339C42.6356 6.40867 42.6594 6.51133 42.6374 6.647C42.5677 7.10533 42.3606 7.44633 42.0159 7.67C41.6749 7.89 41.1946 8 40.5749 8H39.6729C38.9579 8 38.4281 7.8295 38.0834 7.4885C37.7424 7.1475 37.5719 6.62133 37.5719 5.91V4.645C37.5719 3.919 37.7424 3.38733 38.0834 3.05C38.4281 2.709 38.9579 2.54217 39.6729 2.5495H40.5749C41.2899 2.5495 41.8179 2.72 42.1589 3.061C42.4999 3.39833 42.6704 3.92633 42.6704 4.645V5.195C42.6704 5.46633 42.5366 5.602 42.2689 5.602H38.3804ZM39.6729 3.358C39.1779 3.35067 38.8387 3.43867 38.6554 3.622C38.4721 3.80533 38.3804 4.14633 38.3804 4.645V4.7935H41.8619V4.645C41.8619 4.15 41.7702 3.81267 41.5869 3.633C41.4072 3.44967 41.0699 3.358 40.5749 3.358H39.6729ZM46.5264 8C45.8114 8 45.2816 7.8295 44.9369 7.4885C44.5959 7.14383 44.4254 6.614 44.4254 5.899V4.645C44.4254 3.93 44.5959 3.402 44.9369 3.061C45.2816 2.72 45.8114 2.5495 46.5264 2.5495H48.7154V0.696C48.7154 0.428333 48.8511 0.2945 49.1224 0.2945C49.3901 0.2945 49.5239 0.428333 49.5239 0.696V7.593C49.5239 7.86433 49.3901 8 49.1224 8C48.8511 8 48.7154 7.86433 48.7154 7.593V7.384C48.5467 7.58567 48.3194 7.73967 48.0334 7.846C47.7474 7.94867 47.3844 8 46.9444 8H46.5264ZM46.5264 7.1915H46.9444C47.4577 7.1915 47.8812 7.12 48.2149 6.977C48.5486 6.834 48.7154 6.61583 48.7154 6.3225V3.358H46.5264C46.0314 3.358 45.6922 3.4515 45.5089 3.6385C45.3256 3.82183 45.2339 4.15733 45.2339 4.645V5.899C45.2339 6.394 45.3256 6.73317 45.5089 6.9165C45.6959 7.09983 46.0351 7.1915 46.5264 7.1915ZM56.517 8C55.9157 8 55.4702 7.85517 55.1805 7.5655C54.8908 7.27583 54.746 6.83033 54.746 6.229C54.746 5.62767 54.889 5.18217 55.175 4.8925C55.4647 4.60283 55.912 4.458 56.517 4.458H58.8985C58.8838 4.04 58.7812 3.75217 58.5905 3.5945C58.3998 3.43683 58.0753 3.358 57.617 3.358H56.979C56.5793 3.358 56.2823 3.391 56.088 3.457C55.8973 3.523 55.769 3.6385 55.703 3.8035C55.6517 3.9355 55.5948 4.029 55.5325 4.084C55.4738 4.13533 55.3822 4.161 55.2575 4.161C55.1218 4.161 55.0155 4.12433 54.9385 4.051C54.8652 3.974 54.8432 3.87317 54.8725 3.7485C54.9605 3.33417 55.1768 3.03167 55.5215 2.841C55.8662 2.64667 56.352 2.5495 56.979 2.5495H57.617C58.332 2.5495 58.86 2.72 59.201 3.061C59.542 3.402 59.7125 3.93 59.7125 4.645V7.593C59.7125 7.86433 59.5787 8 59.311 8C59.0397 8 58.904 7.86433 58.904 7.593V7.2465C58.5263 7.74883 57.936 8 57.133 8H56.517ZM56.517 7.1915H57.133C57.43 7.1915 57.7032 7.16217 57.9525 7.1035C58.2018 7.04483 58.4108 6.94217 58.5795 6.7955C58.7482 6.64883 58.8563 6.4435 58.904 6.1795V5.2665H56.517C56.1393 5.2665 55.8845 5.33433 55.7525 5.47C55.6205 5.602 55.5545 5.855 55.5545 6.229C55.5545 6.60667 55.6205 6.8615 55.7525 6.9935C55.8845 7.1255 56.1393 7.1915 56.517 7.1915ZM65.4466 10.2C65.1752 10.2 65.0396 10.0643 65.0396 9.793V2.951C65.0396 2.68333 65.1752 2.5495 65.4466 2.5495C65.7142 2.5495 65.8481 2.68333 65.8481 2.951V3.2095C66.0351 2.9895 66.2771 2.8245 66.5741 2.7145C66.8711 2.6045 67.2212 2.5495 67.6246 2.5495H68.0426C68.7576 2.5495 69.2856 2.72 69.6266 3.061C69.9676 3.402 70.1381 3.93 70.1381 4.645V5.899C70.1381 6.614 69.9676 7.14383 69.6266 7.4885C69.2856 7.8295 68.7576 8 68.0426 8H65.8481V9.793C65.8481 10.0643 65.7142 10.2 65.4466 10.2ZM65.8481 7.1915H68.0426C68.5376 7.1915 68.8749 7.09983 69.0546 6.9165C69.2379 6.73317 69.3296 6.394 69.3296 5.899V4.645C69.3296 4.15 69.2379 3.81267 69.0546 3.633C68.8749 3.44967 68.5376 3.358 68.0426 3.358H67.6246C67.1222 3.358 66.7079 3.42583 66.3816 3.5615C66.0552 3.6935 65.8774 3.9025 65.8481 4.1885V7.1915ZM73.7302 8C73.1839 8 72.7787 7.868 72.5147 7.604C72.2507 7.33633 72.1187 6.92933 72.1187 6.383V0.696C72.1187 0.428333 72.2544 0.2945 72.5257 0.2945C72.7934 0.2945 72.9272 0.428333 72.9272 0.696V6.383C72.9272 6.702 72.9804 6.9165 73.0867 7.0265C73.1967 7.1365 73.4112 7.1915 73.7302 7.1915C74.0052 7.1915 74.1427 7.32533 74.1427 7.593C74.15 7.86433 74.0125 8 73.7302 8ZM77.1527 8C76.5514 8 76.1059 7.85517 75.8162 7.5655C75.5266 7.27583 75.3817 6.83033 75.3817 6.229C75.3817 5.62767 75.5247 5.18217 75.8107 4.8925C76.1004 4.60283 76.5477 4.458 77.1527 4.458H79.5342C79.5196 4.04 79.4169 3.75217 79.2262 3.5945C79.0356 3.43683 78.7111 3.358 78.2527 3.358H77.6147C77.2151 3.358 76.9181 3.391 76.7237 3.457C76.5331 3.523 76.4047 3.6385 76.3387 3.8035C76.2874 3.9355 76.2306 4.029 76.1682 4.084C76.1096 4.13533 76.0179 4.161 75.8932 4.161C75.7576 4.161 75.6512 4.12433 75.5742 4.051C75.5009 3.974 75.4789 3.87317 75.5082 3.7485C75.5962 3.33417 75.8126 3.03167 76.1572 2.841C76.5019 2.64667 76.9877 2.5495 77.6147 2.5495H78.2527C78.9677 2.5495 79.4957 2.72 79.8367 3.061C80.1777 3.402 80.3482 3.93 80.3482 4.645V7.593C80.3482 7.86433 80.2144 8 79.9467 8C79.6754 8 79.5397 7.86433 79.5397 7.593V7.2465C79.1621 7.74883 78.5717 8 77.7687 8H77.1527ZM77.1527 7.1915H77.7687C78.0657 7.1915 78.3389 7.16217 78.5882 7.1035C78.8376 7.04483 79.0466 6.94217 79.2152 6.7955C79.3839 6.64883 79.4921 6.4435 79.5397 6.1795V5.2665H77.1527C76.7751 5.2665 76.5202 5.33433 76.3882 5.47C76.2562 5.602 76.1902 5.855 76.1902 6.229C76.1902 6.60667 76.2562 6.8615 76.3882 6.9935C76.5202 7.1255 76.7751 7.1915 77.1527 7.1915ZM84.7297 8C84.022 8 83.5013 7.83317 83.1677 7.4995C82.834 7.16583 82.6672 6.647 82.6672 5.943V3.358H82.0897C81.8183 3.358 81.6827 3.22233 81.6827 2.951C81.6827 2.68333 81.8183 2.5495 82.0897 2.5495H82.6672V1.62C82.6672 1.34867 82.801 1.213 83.0687 1.213C83.34 1.213 83.4757 1.34867 83.4757 1.62V2.5495H84.7792C85.0468 2.5495 85.1807 2.68333 85.1807 2.951C85.1807 3.22233 85.0468 3.358 84.7792 3.358H83.4757V5.943C83.4757 6.427 83.5637 6.757 83.7397 6.933C83.9193 7.10533 84.2493 7.1915 84.7297 7.1915C84.8617 7.1915 84.9625 7.2245 85.0322 7.2905C85.1018 7.35283 85.1367 7.45367 85.1367 7.593C85.1367 7.86433 85.001 8 84.7297 8ZM87.4237 8C87.1524 8 87.0167 7.86433 87.0167 7.593V3.358H86.5932C86.3219 3.358 86.1862 3.22233 86.1862 2.951C86.1862 2.68333 86.3219 2.5495 86.5932 2.5495H87.0167V2.357C87.0167 1.653 87.1854 1.13417 87.5227 0.8005C87.8601 0.463167 88.3807 0.2945 89.0847 0.2945C89.3231 0.2945 89.4422 0.428333 89.4422 0.696C89.4422 0.967333 89.3231 1.103 89.0847 1.103C88.6044 1.103 88.2744 1.191 88.0947 1.367C87.9151 1.543 87.8252 1.873 87.8252 2.357V2.5495H89.0352C89.3066 2.5495 89.4422 2.68333 89.4422 2.951C89.4422 3.22233 89.3066 3.358 89.0352 3.358H87.8252V7.593C87.8252 7.86433 87.6914 8 87.4237 8ZM92.4278 8C91.7128 8 91.1829 7.8295 90.8383 7.4885C90.4973 7.1475 90.3268 6.62133 90.3268 5.91V4.645C90.3268 3.92267 90.4973 3.39283 90.8383 3.0555C91.1829 2.7145 91.7128 2.54583 92.4278 2.5495H93.3298C94.0448 2.5495 94.5728 2.72 94.9138 3.061C95.2548 3.402 95.4253 3.93 95.4253 4.645V5.899C95.4253 6.614 95.2548 7.14383 94.9138 7.4885C94.5728 7.8295 94.0448 8 93.3298 8H92.4278ZM91.1353 5.91C91.1353 6.39767 91.2269 6.73317 91.4103 6.9165C91.5936 7.09983 91.9328 7.1915 92.4278 7.1915H93.3298C93.8248 7.1915 94.1621 7.09983 94.3418 6.9165C94.5251 6.73317 94.6168 6.394 94.6168 5.899V4.645C94.6168 4.15 94.5251 3.81267 94.3418 3.633C94.1621 3.44967 93.8248 3.358 93.3298 3.358H92.4278C92.0978 3.358 91.8393 3.3965 91.6523 3.4735C91.4653 3.5505 91.3314 3.6825 91.2508 3.8695C91.1738 4.0565 91.1353 4.315 91.1353 4.645V5.91ZM97.8128 8C97.5415 8 97.4058 7.86433 97.4058 7.593V2.951C97.4058 2.68333 97.5415 2.5495 97.8128 2.5495C98.0805 2.5495 98.2143 2.68333 98.2143 2.951V3.523C98.4233 3.204 98.6983 2.962 99.0393 2.797C99.384 2.632 99.7836 2.5495 100.238 2.5495C100.51 2.5495 100.645 2.68333 100.645 2.951C100.645 3.22233 100.51 3.358 100.238 3.358C99.5966 3.358 99.1053 3.48633 98.7643 3.743C98.4233 3.996 98.24 4.3425 98.2143 4.7825V7.593C98.2143 7.86433 98.0805 8 97.8128 8ZM107.929 2.544C108.589 2.544 109.062 2.7035 109.348 3.0225C109.634 3.3415 109.777 3.86767 109.777 4.601V7.5985C109.777 7.86617 109.643 8 109.376 8C109.104 8 108.969 7.86617 108.969 7.5985V4.601C108.969 4.161 108.888 3.84383 108.727 3.6495C108.565 3.4515 108.299 3.3525 107.929 3.3525H107.478C107.038 3.3525 106.723 3.4515 106.532 3.6495C106.345 3.84383 106.252 4.161 106.252 4.601V7.5985C106.252 7.86617 106.118 8 105.85 8C105.579 8 105.443 7.86617 105.443 7.5985V4.601C105.443 4.161 105.362 3.84383 105.201 3.6495C105.04 3.4515 104.774 3.3525 104.404 3.3525H103.953C103.513 3.3525 103.197 3.4515 103.007 3.6495C102.82 3.84383 102.726 4.161 102.726 4.601V7.5985C102.726 7.86617 102.592 8 102.325 8C102.053 8 101.918 7.86617 101.918 7.5985V2.951C101.918 2.68333 102.053 2.5495 102.325 2.5495C102.592 2.5495 102.726 2.68333 102.726 2.951V3.2645C102.909 3.00783 103.115 2.8245 103.342 2.7145C103.573 2.60083 103.854 2.544 104.184 2.544H104.404C104.836 2.544 105.177 2.61 105.427 2.742C105.68 2.87033 105.874 3.07933 106.01 3.369C106.193 3.072 106.396 2.86117 106.62 2.7365C106.844 2.60817 107.13 2.544 107.478 2.544H107.929ZM117.386 8C116.678 8 116.158 7.83317 115.824 7.4995C115.49 7.16583 115.323 6.647 115.323 5.943V3.358H114.746C114.475 3.358 114.339 3.22233 114.339 2.951C114.339 2.68333 114.475 2.5495 114.746 2.5495H115.323V1.62C115.323 1.34867 115.457 1.213 115.725 1.213C115.996 1.213 116.132 1.34867 116.132 1.62V2.5495H117.435C117.703 2.5495 117.837 2.68333 117.837 2.951C117.837 3.22233 117.703 3.358 117.435 3.358H116.132V5.943C116.132 6.427 116.22 6.757 116.396 6.933C116.576 7.10533 116.906 7.1915 117.386 7.1915C117.518 7.1915 117.619 7.2245 117.688 7.2905C117.758 7.35283 117.793 7.45367 117.793 7.593C117.793 7.86433 117.657 8 117.386 8ZM120.938 8C120.223 8 119.693 7.8295 119.348 7.4885C119.007 7.1475 118.837 6.62133 118.837 5.91V4.645C118.837 3.92267 119.007 3.39283 119.348 3.0555C119.693 2.7145 120.223 2.54583 120.938 2.5495H121.84C122.555 2.5495 123.083 2.72 123.424 3.061C123.765 3.402 123.935 3.93 123.935 4.645V5.899C123.935 6.614 123.765 7.14383 123.424 7.4885C123.083 7.8295 122.555 8 121.84 8H120.938ZM119.645 5.91C119.645 6.39767 119.737 6.73317 119.92 6.9165C120.103 7.09983 120.443 7.1915 120.938 7.1915H121.84C122.335 7.1915 122.672 7.09983 122.852 6.9165C123.035 6.73317 123.127 6.394 123.127 5.899V4.645C123.127 4.15 123.035 3.81267 122.852 3.633C122.672 3.44967 122.335 3.358 121.84 3.358H120.938C120.608 3.358 120.349 3.3965 120.162 3.4735C119.975 3.5505 119.841 3.6825 119.761 3.8695C119.684 4.0565 119.645 4.315 119.645 4.645V5.91ZM8.9844 18.602V18.91C8.9844 19.3977 9.07607 19.7332 9.2594 19.9165C9.44273 20.0998 9.7819 20.1915 10.2769 20.1915H11.1789C11.5822 20.1915 11.8774 20.1493 12.0644 20.065C12.2551 19.977 12.3779 19.8248 12.4329 19.6085C12.4622 19.4875 12.5081 19.394 12.5704 19.328C12.6364 19.262 12.7336 19.229 12.8619 19.229C12.9976 19.229 13.1002 19.2657 13.1699 19.339C13.2396 19.4087 13.2634 19.5113 13.2414 19.647C13.1717 20.1053 12.9646 20.4463 12.6199 20.67C12.2789 20.89 11.7986 21 11.1789 21H10.2769C9.5619 21 9.03207 20.8295 8.6874 20.4885C8.3464 20.1475 8.1759 19.6213 8.1759 18.91V17.645C8.1759 16.919 8.3464 16.3873 8.6874 16.05C9.03207 15.709 9.5619 15.5422 10.2769 15.5495H11.1789C11.8939 15.5495 12.4219 15.72 12.7629 16.061C13.1039 16.3983 13.2744 16.9263 13.2744 17.645V18.195C13.2744 18.4663 13.1406 18.602 12.8729 18.602H8.9844ZM10.2769 16.358C9.7819 16.3507 9.44273 16.4387 9.2594 16.622C9.07607 16.8053 8.9844 17.1463 8.9844 17.645V17.7935H12.4659V17.645C12.4659 17.15 12.3742 16.8127 12.1909 16.633C12.0112 16.4497 11.6739 16.358 11.1789 16.358H10.2769ZM14.5699 20.901C14.3572 20.736 14.3297 20.5453 14.4874 20.329L16.1484 18.074L14.7184 16.215C14.5461 16.006 14.5699 15.819 14.7899 15.654C14.9989 15.4853 15.1859 15.5073 15.3509 15.72L16.7149 17.491L18.0899 15.72C18.2512 15.5 18.4401 15.4762 18.6564 15.6485C18.8691 15.8098 18.8947 15.9987 18.7334 16.215L17.2209 18.151L18.8984 20.3235C19.0561 20.5398 19.0341 20.7287 18.8324 20.89C18.6124 21.0623 18.4217 21.0385 18.2604 20.8185L16.6599 18.745L15.1364 20.8075C14.9714 21.0312 14.7826 21.0623 14.5699 20.901ZM21.0156 18.602V18.91C21.0156 19.3977 21.1073 19.7332 21.2906 19.9165C21.474 20.0998 21.8131 20.1915 22.3081 20.1915H23.2101C23.6135 20.1915 23.9086 20.1493 24.0956 20.065C24.2863 19.977 24.4091 19.8248 24.4641 19.6085C24.4935 19.4875 24.5393 19.394 24.6016 19.328C24.6676 19.262 24.7648 19.229 24.8931 19.229C25.0288 19.229 25.1315 19.2657 25.2011 19.339C25.2708 19.4087 25.2946 19.5113 25.2726 19.647C25.203 20.1053 24.9958 20.4463 24.6511 20.67C24.3101 20.89 23.8298 21 23.2101 21H22.3081C21.5931 21 21.0633 20.8295 20.7186 20.4885C20.3776 20.1475 20.2071 19.6213 20.2071 18.91V17.645C20.2071 16.919 20.3776 16.3873 20.7186 16.05C21.0633 15.709 21.5931 15.5422 22.3081 15.5495H23.2101C23.9251 15.5495 24.4531 15.72 24.7941 16.061C25.1351 16.3983 25.3056 16.9263 25.3056 17.645V18.195C25.3056 18.4663 25.1718 18.602 24.9041 18.602H21.0156ZM22.3081 16.358C21.8131 16.3507 21.474 16.4387 21.2906 16.622C21.1073 16.8053 21.0156 17.1463 21.0156 17.645V17.7935H24.4971V17.645C24.4971 17.15 24.4055 16.8127 24.2221 16.633C24.0425 16.4497 23.7051 16.358 23.2101 16.358H22.3081ZM29.1617 21C28.4467 21 27.9168 20.8295 27.5722 20.4885C27.2312 20.1438 27.0607 19.614 27.0607 18.899V17.634C27.0607 16.919 27.2293 16.391 27.5667 16.05C27.9077 15.709 28.4393 15.5422 29.1617 15.5495H30.0637C30.6063 15.5495 31.0298 15.6412 31.3342 15.8245C31.6385 16.0078 31.8292 16.2902 31.9062 16.6715C31.9318 16.8072 31.9062 16.9117 31.8292 16.985C31.7558 17.0583 31.6495 17.095 31.5102 17.095C31.3855 17.095 31.2938 17.0638 31.2352 17.0015C31.1765 16.9355 31.1252 16.8438 31.0812 16.7265C31.0298 16.5908 30.9253 16.4955 30.7677 16.4405C30.6137 16.3855 30.379 16.358 30.0637 16.358H29.1617C28.6703 16.3507 28.3312 16.4387 28.1442 16.622C27.9608 16.8017 27.8692 17.139 27.8692 17.634V18.899C27.8692 19.394 27.9608 19.7332 28.1442 19.9165C28.3312 20.0998 28.6703 20.1915 29.1617 20.1915H30.0637C30.379 20.1915 30.6137 20.164 30.7677 20.109C30.9253 20.054 31.0298 19.9568 31.0812 19.8175C31.1252 19.6965 31.1765 19.6048 31.2352 19.5425C31.2938 19.4802 31.3873 19.449 31.5157 19.449C31.6513 19.449 31.7558 19.4875 31.8292 19.5645C31.9062 19.6378 31.9318 19.7405 31.9062 19.8725C31.8292 20.2538 31.6385 20.538 31.3342 20.725C31.0298 20.9083 30.6063 21 30.0637 21H29.1617ZM38.2622 15.5495C38.5335 15.5495 38.6692 15.6833 38.6692 15.951V20.593C38.6692 20.8643 38.5335 21 38.2622 21C37.9945 21 37.8607 20.8643 37.8607 20.593V20.3015C37.483 20.7672 36.8909 21 36.0842 21H35.7762C35.0612 21 34.5332 20.8295 34.1922 20.4885C33.8512 20.1438 33.6807 19.614 33.6807 18.899V15.951C33.6807 15.6833 33.8145 15.5495 34.0822 15.5495C34.3535 15.5495 34.4892 15.6833 34.4892 15.951V18.899C34.4892 19.394 34.5809 19.7332 34.7642 19.9165C34.9512 20.0998 35.2885 20.1915 35.7762 20.1915H36.0842C36.5682 20.1915 36.9734 20.1273 37.2997 19.999C37.626 19.867 37.813 19.6672 37.8607 19.3995V15.951C37.8607 15.6833 37.9945 15.5495 38.2622 15.5495ZM43.152 21C42.4444 21 41.9237 20.8332 41.59 20.4995C41.2564 20.1658 41.0895 19.647 41.0895 18.943V16.358H40.512C40.2407 16.358 40.105 16.2223 40.105 15.951C40.105 15.6833 40.2407 15.5495 40.512 15.5495H41.0895V14.62C41.0895 14.3487 41.2234 14.213 41.491 14.213C41.7624 14.213 41.898 14.3487 41.898 14.62V15.5495H43.2015C43.4692 15.5495 43.603 15.6833 43.603 15.951C43.603 16.2223 43.4692 16.358 43.2015 16.358H41.898V18.943C41.898 19.427 41.986 19.757 42.162 19.933C42.3417 20.1053 42.6717 20.1915 43.152 20.1915C43.284 20.1915 43.3849 20.2245 43.4545 20.2905C43.5242 20.3528 43.559 20.4537 43.559 20.593C43.559 20.8643 43.4234 21 43.152 21ZM45.4112 18.602V18.91C45.4112 19.3977 45.5028 19.7332 45.6862 19.9165C45.8695 20.0998 46.2087 20.1915 46.7037 20.1915H47.6057C48.009 20.1915 48.3042 20.1493 48.4912 20.065C48.6818 19.977 48.8047 19.8248 48.8597 19.6085C48.889 19.4875 48.9348 19.394 48.9972 19.328C49.0632 19.262 49.1603 19.229 49.2887 19.229C49.4243 19.229 49.527 19.2657 49.5967 19.339C49.6663 19.4087 49.6902 19.5113 49.6682 19.647C49.5985 20.1053 49.3913 20.4463 49.0467 20.67C48.7057 20.89 48.2253 21 47.6057 21H46.7037C45.9887 21 45.4588 20.8295 45.1142 20.4885C44.7732 20.1475 44.6027 19.6213 44.6027 18.91V17.645C44.6027 16.919 44.7732 16.3873 45.1142 16.05C45.4588 15.709 45.9887 15.5422 46.7037 15.5495H47.6057C48.3207 15.5495 48.8487 15.72 49.1897 16.061C49.5307 16.3983 49.7012 16.9263 49.7012 17.645V18.195C49.7012 18.4663 49.5673 18.602 49.2997 18.602H45.4112ZM46.7037 16.358C46.2087 16.3507 45.8695 16.4387 45.6862 16.622C45.5028 16.8053 45.4112 17.1463 45.4112 17.645V17.7935H48.8927V17.645C48.8927 17.15 48.801 16.8127 48.6177 16.633C48.438 16.4497 48.1007 16.358 47.6057 16.358H46.7037ZM56.3233 23.2C55.81 23.2 55.4268 23.0717 55.1738 22.815C54.9245 22.562 54.7998 22.177 54.7998 21.66C54.7998 21.3923 54.9337 21.2585 55.2013 21.2585C55.4727 21.2585 55.6083 21.3923 55.6083 21.66C55.6083 21.9533 55.6542 22.1477 55.7458 22.243C55.8412 22.342 56.0337 22.3915 56.3233 22.3915H58.3803C58.67 22.3915 58.8625 22.342 58.9578 22.243C59.0532 22.1477 59.1008 21.9533 59.1008 21.66V20.2245C58.8845 20.5362 58.626 20.7433 58.3253 20.846C58.0247 20.9487 57.691 21 57.3243 21H56.8623C56.1547 21 55.634 20.8332 55.3003 20.4995C54.9667 20.1658 54.7998 19.6488 54.7998 18.9485V15.951C54.7998 15.6797 54.9337 15.544 55.2013 15.544C55.4727 15.544 55.6083 15.6797 55.6083 15.951V18.9485C55.6083 19.4252 55.6963 19.7515 55.8723 19.9275C56.052 20.1035 56.382 20.1915 56.8623 20.1915H57.3243C57.9403 20.1915 58.3895 20.0888 58.6718 19.8835C58.9578 19.6782 59.1008 19.3665 59.1008 18.9485V15.951C59.1008 15.6797 59.2347 15.544 59.5023 15.544C59.7737 15.544 59.9093 15.6797 59.9093 15.951V21.66C59.9093 22.177 59.7828 22.562 59.5298 22.815C59.2768 23.0717 58.8937 23.2 58.3803 23.2H56.3233ZM63.9986 21C63.2836 21 62.7537 20.8295 62.4091 20.4885C62.0681 20.1475 61.8976 19.6213 61.8976 18.91V17.645C61.8976 16.9227 62.0681 16.3928 62.4091 16.0555C62.7537 15.7145 63.2836 15.5458 63.9986 15.5495H64.9006C65.6156 15.5495 66.1436 15.72 66.4846 16.061C66.8256 16.402 66.9961 16.93 66.9961 17.645V18.899C66.9961 19.614 66.8256 20.1438 66.4846 20.4885C66.1436 20.8295 65.6156 21 64.9006 21H63.9986ZM62.7061 18.91C62.7061 19.3977 62.7977 19.7332 62.9811 19.9165C63.1644 20.0998 63.5036 20.1915 63.9986 20.1915H64.9006C65.3956 20.1915 65.7329 20.0998 65.9126 19.9165C66.0959 19.7332 66.1876 19.394 66.1876 18.899V17.645C66.1876 17.15 66.0959 16.8127 65.9126 16.633C65.7329 16.4497 65.3956 16.358 64.9006 16.358H63.9986C63.6686 16.358 63.4101 16.3965 63.2231 16.4735C63.0361 16.5505 62.9022 16.6825 62.8216 16.8695C62.7446 17.0565 62.7061 17.315 62.7061 17.645V18.91ZM73.4536 15.5495C73.7249 15.5495 73.8606 15.6833 73.8606 15.951V20.593C73.8606 20.8643 73.7249 21 73.4536 21C73.1859 21 73.0521 20.8643 73.0521 20.593V20.3015C72.6744 20.7672 72.0823 21 71.2756 21H70.9676C70.2526 21 69.7246 20.8295 69.3836 20.4885C69.0426 20.1438 68.8721 19.614 68.8721 18.899V15.951C68.8721 15.6833 69.0059 15.5495 69.2736 15.5495C69.5449 15.5495 69.6806 15.6833 69.6806 15.951V18.899C69.6806 19.394 69.7723 19.7332 69.9556 19.9165C70.1426 20.0998 70.4799 20.1915 70.9676 20.1915H71.2756C71.7596 20.1915 72.1648 20.1273 72.4911 19.999C72.8174 19.867 73.0044 19.6672 73.0521 19.3995V15.951C73.0521 15.6833 73.1859 15.5495 73.4536 15.5495ZM76.4734 21C76.2021 21 76.0664 20.8643 76.0664 20.593V15.951C76.0664 15.6833 76.2021 15.5495 76.4734 15.5495C76.7411 15.5495 76.8749 15.6833 76.8749 15.951V16.523C77.0839 16.204 77.3589 15.962 77.6999 15.797C78.0446 15.632 78.4443 15.5495 78.8989 15.5495C79.1703 15.5495 79.3059 15.6833 79.3059 15.951C79.3059 16.2223 79.1703 16.358 78.8989 16.358C78.2573 16.358 77.7659 16.4863 77.4249 16.743C77.0839 16.996 76.9006 17.3425 76.8749 17.7825V20.593C76.8749 20.8643 76.7411 21 76.4734 21ZM85.9183 20.6975C85.8743 20.8038 85.8138 20.8808 85.7368 20.9285C85.6598 20.9762 85.5645 21 85.4508 21C85.2418 21 85.0933 20.8937 85.0053 20.681L83.0803 16.1215C82.9666 15.8685 83.0381 15.6925 83.2948 15.5935C83.5331 15.4835 83.7091 15.555 83.8228 15.808L85.6653 20.1695H85.2638L87.2603 15.7915C87.3153 15.6815 87.3886 15.6082 87.4803 15.5715C87.5756 15.5348 87.682 15.5422 87.7993 15.5935C88.0413 15.7072 88.1073 15.8868 87.9973 16.1325L85.9183 20.6975ZM89.7527 14.6145C89.4373 14.6145 89.2797 14.4532 89.2797 14.1305V13.8335C89.2797 13.5182 89.4373 13.3605 89.7527 13.3605H90.0497C90.354 13.3605 90.5062 13.5182 90.5062 13.8335V14.1305C90.5062 14.4532 90.354 14.6145 90.0497 14.6145H89.7527ZM89.9012 21C89.6298 21 89.4942 20.8643 89.4942 20.593V15.951C89.4942 15.6833 89.6298 15.5495 89.9012 15.5495C90.1688 15.5495 90.3027 15.6833 90.3027 15.951V20.593C90.3027 20.8643 90.1688 21 89.9012 21ZM93.7667 20.9945C93.3047 20.9945 92.9436 20.8992 92.6832 20.7085C92.4229 20.5142 92.2597 20.2227 92.1937 19.834C92.1717 19.702 92.1974 19.5975 92.2707 19.5205C92.3477 19.4435 92.4541 19.405 92.5897 19.405C92.7181 19.405 92.8116 19.438 92.8702 19.504C92.9326 19.57 92.9821 19.669 93.0187 19.801C93.0591 19.9513 93.1361 20.054 93.2497 20.109C93.3634 20.1603 93.5357 20.186 93.7667 20.186H95.5707C95.8751 20.186 96.0804 20.1347 96.1867 20.032C96.2967 19.9257 96.3517 19.7167 96.3517 19.405C96.3517 19.0933 96.2967 18.8843 96.1867 18.778C96.0804 18.6717 95.8751 18.6185 95.5707 18.6185H93.7942C93.2846 18.6185 92.9014 18.492 92.6447 18.239C92.3881 17.9823 92.2597 17.5992 92.2597 17.0895C92.2597 16.5688 92.3844 16.182 92.6337 15.929C92.8867 15.6723 93.2736 15.544 93.7942 15.544H95.5157C96.3664 15.544 96.8596 15.9088 96.9952 16.6385C97.0172 16.7742 96.9897 16.8787 96.9127 16.952C96.8394 17.0253 96.7349 17.062 96.5992 17.062C96.4746 17.062 96.3811 17.029 96.3187 16.963C96.2564 16.897 96.2087 16.8035 96.1757 16.6825C96.1391 16.5542 96.0694 16.468 95.9667 16.424C95.8677 16.3763 95.7174 16.3525 95.5157 16.3525H93.7942C93.5009 16.3525 93.3066 16.4002 93.2112 16.4955C93.1159 16.5908 93.0682 16.7888 93.0682 17.0895C93.0682 17.3682 93.1177 17.5588 93.2167 17.6615C93.3194 17.7605 93.5119 17.81 93.7942 17.81H95.5707C96.1061 17.81 96.5039 17.942 96.7642 18.206C97.0282 18.47 97.1602 18.8697 97.1602 19.405C97.1602 19.9403 97.0282 20.34 96.7642 20.604C96.5039 20.8643 96.1061 20.9945 95.5707 20.9945H93.7667ZM99.3025 14.6145C98.9871 14.6145 98.8295 14.4532 98.8295 14.1305V13.8335C98.8295 13.5182 98.9871 13.3605 99.3025 13.3605H99.5995C99.9038 13.3605 100.056 13.5182 100.056 13.8335V14.1305C100.056 14.4532 99.9038 14.6145 99.5995 14.6145H99.3025ZM99.451 21C99.1796 21 99.044 20.8643 99.044 20.593V15.951C99.044 15.6833 99.1796 15.5495 99.451 15.5495C99.7186 15.5495 99.8525 15.6833 99.8525 15.951V20.593C99.8525 20.8643 99.7186 21 99.451 21ZM103.938 21C103.223 21 102.693 20.8295 102.349 20.4885C102.008 20.1475 101.837 19.6213 101.837 18.91V17.645C101.837 16.9227 102.008 16.3928 102.349 16.0555C102.693 15.7145 103.223 15.5458 103.938 15.5495H104.84C105.555 15.5495 106.083 15.72 106.424 16.061C106.765 16.402 106.936 16.93 106.936 17.645V18.899C106.936 19.614 106.765 20.1438 106.424 20.4885C106.083 20.8295 105.555 21 104.84 21H103.938ZM102.646 18.91C102.646 19.3977 102.737 19.7332 102.921 19.9165C103.104 20.0998 103.443 20.1915 103.938 20.1915H104.84C105.335 20.1915 105.672 20.0998 105.852 19.9165C106.035 19.7332 106.127 19.394 106.127 18.899V17.645C106.127 17.15 106.035 16.8127 105.852 16.633C105.672 16.4497 105.335 16.358 104.84 16.358H103.938C103.608 16.358 103.35 16.3965 103.163 16.4735C102.976 16.5505 102.842 16.6825 102.761 16.8695C102.684 17.0565 102.646 17.315 102.646 17.645V18.91ZM109.323 21C109.052 21 108.916 20.8643 108.916 20.593V15.951C108.916 15.6833 109.052 15.5495 109.323 15.5495C109.591 15.5495 109.725 15.6833 109.725 15.951V16.248C110.099 15.7823 110.691 15.5495 111.501 15.5495H111.809C112.524 15.5495 113.052 15.72 113.393 16.061C113.734 16.402 113.905 16.93 113.905 17.645V20.593C113.905 20.8643 113.771 21 113.503 21C113.232 21 113.096 20.8643 113.096 20.593V17.645C113.096 17.15 113.003 16.8127 112.816 16.633C112.632 16.4497 112.297 16.358 111.809 16.358H111.501C111.017 16.358 110.612 16.4222 110.286 16.5505C109.959 16.6752 109.772 16.8732 109.725 17.1445V20.593C109.725 20.8643 109.591 21 109.323 21ZM116.187 21C115.92 21 115.786 20.8662 115.786 20.5985V20.3455C115.786 20.0852 115.92 19.955 116.187 19.955H116.429C116.686 19.955 116.814 20.0852 116.814 20.3455V20.5985C116.814 20.8662 116.686 21 116.429 21H116.187Z" fill="white"/>
</svg>
